<svg version="1.1" id="Layer_1" xmlns="http://www.w3.org/2000/svg" xmlns:xlink="http://www.w3.org/1999/xlink" x="0px" y="0px" viewBox="0 0 500 500" style="width: 144px;" xml:space="preserve" data-imageid="progress-38" imageName="Progress" class="illustrations_image">
<style type="text/css">
	.st0_progress-38{fill:#FFFFFF;}
	.st1_progress-38{fill:#093F68;}
	.st2_progress-38{fill:#68E1FD;}
	.st3_progress-38{fill:#DFEAEF;}
	.st4_progress-38{fill:#F56132;}
	.st5_progress-38{fill:#FFC9B0;}
	.st6_progress-38{fill:#FFBC0E;}
	.st7_progress-38{fill:#725858;}
	.st8_progress-38{fill:#70CC40;}
	.st9_progress-38{fill:#B57670;}
</style>
<g id="board_progress-38">
	<path class="st0_progress-38" d="M68,80.7h366v227.7c0,2.9-2.4,5.3-5.3,5.3H73.3c-2.9,0-5.3-2.4-5.3-5.3l0,0V80.7z"/>
	<path class="st1_progress-38" d="M424.2,315.5H77.8c-6.4,0-11.6-5.2-11.6-11.7c0,0,0,0,0,0V80.7c0-1,0.9-1.9,1.9-1.9l0,0h366&#10;&#9;&#9;c1,0,1.9,0.9,1.9,1.9v223.1C435.9,310.3,430.7,315.5,424.2,315.5z M69.9,82.6v221.3c0,4.3,3.5,7.9,7.8,7.9c0,0,0.1,0,0.1,0h346.4&#10;&#9;&#9;c4.4,0,7.9-3.5,7.9-7.9V82.6H69.9z"/>
	<path class="st2_progress-38 targetColor" d="M73.3,59.8h355.4c2.9,0,5.3,2.4,5.3,5.3l0,0v15.6H68V65c0-2.9,2.3-5.2,5.2-5.2C73.2,59.8,73.3,59.8,73.3,59.8z&#10;&#9;&#9;" style="fill: rgb(104, 225, 253);"/>
	<path class="st1_progress-38" d="M434,82.6H68c-1,0-1.8-0.9-1.8-1.9V69.6c0-6.4,5.2-11.6,11.6-11.7h346.4c6.5,0,11.7,5.2,11.7,11.7v11.1&#10;&#9;&#9;C435.8,81.7,435,82.5,434,82.6L434,82.6z M69.9,78.9h362.2v-9.3c0-4.3-3.5-7.9-7.8-7.9c0,0-0.1,0-0.1,0H77.8&#10;&#9;&#9;c-4.4,0-7.9,3.5-7.9,7.9V78.9z"/>
	<path class="st3_progress-38" d="M156.1,102.7h-58c-1,0-1.9-0.9-1.9-1.9l0,0c0-1,0.8-1.9,1.8-1.9c0,0,0.1,0,0.1,0h58c1,0,1.9,0.9,1.9,1.9&#10;&#9;&#9;S157.1,102.7,156.1,102.7z"/>
	<path class="st3_progress-38" d="M133.7,122H98.1c-1,0.1-2-0.6-2.1-1.6c-0.1-1,0.6-2,1.6-2.1c0.1,0,0.2,0,0.2,0h35.9c1,0.1,1.8,1,1.7,2&#10;&#9;&#9;C135.3,121.2,134.6,121.9,133.7,122z"/>
	<path class="st3_progress-38" d="M156.1,122h-12.2c-1,0.1-2-0.6-2.1-1.6c-0.1-1,0.6-2,1.6-2.1c0.1,0,0.2,0,0.2,0H156c1,0.1,1.8,1,1.7,2&#10;&#9;&#9;C157.7,121.2,157,121.9,156.1,122L156.1,122z"/>
	<path class="st3_progress-38" d="M115.9,145H98.1c-1,0.1-2-0.6-2.1-1.6c-0.1-1,0.6-2,1.6-2.1c0.1,0,0.2,0,0.2,0h18.1c1,0,1.9,0.8,1.9,1.8&#10;&#9;&#9;c0,0.9-0.7,1.7-1.6,1.9H115.9z"/>
	<path class="st3_progress-38" d="M401.6,224.4h-71.9c-1-0.1-1.8-1-1.7-2c0.1-0.9,0.8-1.6,1.7-1.7h71.9c1,0.1,1.8,1,1.7,2&#10;&#9;&#9;C403.2,223.6,402.5,224.3,401.6,224.4z"/>
	<path class="st3_progress-38" d="M401.6,243.2h-32.9c-1,0-1.9-0.9-1.9-1.9c0-1,0.9-1.9,1.9-1.9h32.9c1,0,1.9,0.9,1.9,1.9&#10;&#9;&#9;C403.4,242.3,402.6,243.1,401.6,243.2L401.6,243.2z"/>
	<path class="st3_progress-38" d="M346.6,243.2h-17c-1,0-1.9-0.9-1.9-1.9c0-1,0.9-1.9,1.9-1.9h17c1,0,1.9,0.9,1.9,1.9&#10;&#9;&#9;C348.5,242.3,347.6,243.2,346.6,243.2z"/>
</g>
<g id="gear_progress-38">
	<g id="ahcQ9Z_progress-38">
		<path class="st4_progress-38" d="M305.9,169.7c-0.1-2.9-2.2-5.4-5-6c-2.4-0.5-4.8-0.9-7.3-1.3c-0.7,0-1.3-0.5-1.4-1.2&#10;&#9;&#9;&#9;c-0.7-1.9-1.5-3.8-2.4-5.7c-0.3-0.4-0.2-1,0.1-1.4c1.5-2,3-4,4.3-6.1c1.6-2.4,1.4-5.6-0.6-7.8c-2.2-2.4-4.6-4.7-6.9-7.1&#10;&#9;&#9;&#9;c-2.4-2.7-6.4-3.1-9.3-0.9l-5.4,3.9c-0.4,0.4-1,0.4-1.5,0.2c-2.1-0.9-4.1-1.8-6.2-2.6c-0.5-0.1-0.9-0.6-0.9-1.1&#10;&#9;&#9;&#9;c-0.3-2.2-0.7-4.4-1.1-6.6c-0.5-3.2-3.2-5.6-6.4-5.8c-3.4-0.1-6.8-0.1-10.3,0c-3,0.1-5.5,2.2-6.2,5.1c-0.6,2.5-0.9,5-1.4,7.5&#10;&#9;&#9;&#9;c0,0.5-0.4,1-0.9,1.1c-2,0.8-4,1.6-6,2.5c-0.4,0.3-1,0.2-1.4-0.1c-2-1.5-4-2.9-6-4.3c-2.4-1.7-5.7-1.4-7.9,0.5&#10;&#9;&#9;&#9;c-2.6,2.4-5.1,4.9-7.5,7.5c-2.4,2.4-2.5,6.1-0.4,8.7c1.3,1.9,2.7,3.8,4,5.7c0.2,0.3,0.2,0.7,0.1,1c-0.8,2.1-1.7,4.3-2.6,6.4&#10;&#9;&#9;&#9;c-0.2,0.3-0.5,0.6-0.8,0.7c-2.2,0.4-4.4,0.8-6.6,1.1c-3.2,0.3-5.8,3-6,6.2c-0.1,3.6-0.1,7.1,0,10.7c0.1,2.9,2.1,5.3,4.9,5.9&#10;&#9;&#9;&#9;c2.5,0.6,5.1,1,7.7,1.4c0.5,0,1,0.4,1.1,0.9c0.8,2,1.7,4,2.6,6c0.2,0.4,0.2,0.9-0.1,1.3c-1.4,1.8-2.7,3.7-4,5.6&#10;&#9;&#9;&#9;c-2.1,2.8-1.7,6.6,0.8,9c2.1,2.2,4.3,4.4,6.5,6.5c2.4,2.6,6.4,3,9.2,0.7c1.9-1.3,3.7-2.6,5.6-4c0.3-0.3,0.8-0.3,1.2-0.1l5.7,2.4&#10;&#9;&#9;&#9;c0.6,0.2,1,0.7,1.1,1.3c0.3,2.2,0.7,4.4,1.1,6.6c0.4,3.1,3,5.5,6.1,5.7c3.6,0.1,7.2,0.1,10.8,0c2.9-0.1,5.4-2.2,6-5&#10;&#9;&#9;&#9;c0.5-2.4,0.9-4.9,1.3-7.3c0-0.6,0.4-1.1,1-1.3c2-0.8,4-1.6,6-2.5c0.4-0.2,0.9-0.2,1.3,0.1c1.8,1.4,3.7,2.6,5.5,4&#10;&#9;&#9;&#9;c1.3,1,2.9,1.4,4.5,1.4c1.5,0,2.9-0.6,4-1.6c2.4-2.2,4.6-4.5,6.9-6.8c2.8-2.4,3.1-6.6,0.8-9.4l-3.9-5.4c-0.3-0.4-0.4-0.9-0.1-1.3&#10;&#9;&#9;&#9;c0.9-2,1.7-4,2.5-6c0.2-0.5,0.6-0.9,1.2-0.9c2.2-0.3,4.4-0.7,6.7-1.1c3.2-0.4,5.7-3.1,5.8-6.4C306,176.7,306,173.2,305.9,169.7z&#10;&#9;&#9;&#9; M251,198.7c-13.1,0-23.6-10.6-23.6-23.7s10.6-23.6,23.7-23.6c13.1,0,23.6,10.6,23.6,23.7c0,13-10.6,23.6-23.6,23.6&#10;&#9;&#9;&#9;C251.1,198.7,251,198.7,251,198.7z"/>
		<path class="st1_progress-38" d="M250.9,231.8c-1.8,0-3.6,0-5.5-0.1c-4.1-0.3-7.4-3.4-8-7.4c-0.4-2.1-0.8-4.3-1.1-6.4l-5.3-2.2&#10;&#9;&#9;&#9;c-2,1.5-3.7,2.7-5.3,3.8c-3.5,2.8-8.6,2.4-11.7-0.9c-2.2-2.1-4.4-4.3-6.5-6.5c-3.2-3.1-3.6-8-1-11.6c1.2-1.7,2.4-3.5,3.7-5.2&#10;&#9;&#9;&#9;l-2.4-5.4c-2.5-0.4-5-0.8-7.5-1.4c-3.7-0.8-6.3-4-6.4-7.8c-0.1-3.7-0.1-7.2,0-10.8c0.3-4.2,3.6-7.7,7.8-8.1c1.9-0.3,3.9-0.6,5.9-1&#10;&#9;&#9;&#9;c0.8-1.9,1.6-3.8,2.2-5.5c-0.5-0.8-1.1-1.6-1.7-2.4c-0.7-1-1.4-1.9-2-2.9c-2.6-3.4-2.4-8.1,0.6-11.2c2.4-2.6,5-5.2,7.6-7.6&#10;&#9;&#9;&#9;c2.9-2.6,7.2-2.8,10.4-0.7c1.9,1.3,3.8,2.7,5.7,4.1c1.9-0.8,3.7-1.6,5.5-2.3c0.2-0.9,0.3-1.8,0.5-2.7c0.3-1.5,0.5-3.1,0.9-4.6&#10;&#9;&#9;&#9;c0.9-3.8,4.2-6.5,8.1-6.6c3.6-0.1,7-0.1,10.4,0c4.2,0.3,7.6,3.4,8.3,7.5c0.4,2,0.8,4.1,1.1,6.3c1.5,0.6,3.1,1.3,4.5,1.9l1.2,0.5&#10;&#9;&#9;&#9;l5.2-3.8c3.7-2.8,8.9-2.3,12,1.2c0.9,0.9,1.8,1.8,2.7,2.8c1.4,1.4,2.8,2.8,4.2,4.3c2.6,2.9,2.9,7.1,0.8,10.3c-1.2,2-2.7,4-4.1,5.9&#10;&#9;&#9;&#9;c0.9,1.8,1.6,3.7,2.3,5.5c2.2,0.4,4.7,0.8,7.3,1.3c3.7,0.8,6.5,4.1,6.6,7.9l0,0c0.1,4,0.1,7.5-0.1,10.7c-0.2,4.2-3.3,7.7-7.5,8.3&#10;&#9;&#9;&#9;l-0.9,0.2c-1.9,0.3-3.7,0.6-5.5,0.9c-0.7,1.8-1.5,3.6-2.3,5.4l3.6,5c2.9,3.7,2.5,9-1,12.1l-1.7,1.7c-1.7,1.7-3.4,3.5-5.3,5.1&#10;&#9;&#9;&#9;c-1.5,1.4-3.4,2.1-5.4,2.1c-2,0.1-4.1-0.6-5.7-1.8c-0.9-0.7-1.8-1.3-2.7-1.9c-0.8-0.6-1.6-1.1-2.4-1.8c-1.9,0.8-3.7,1.6-5.5,2.3&#10;&#9;&#9;&#9;l-0.1,0.8c-0.4,2.1-0.7,4.3-1.2,6.5c-0.8,3.7-4.1,6.5-7.9,6.6C254.5,231.8,252.7,231.7,250.9,231.8z M237.9,214.2&#10;&#9;&#9;&#9;c1.2,0.5,2.1,1.5,2.4,2.8c0.3,2.2,0.7,4.4,1.1,6.5v0.1c0.3,2.1,2.1,3.8,4.2,4c3.5,0.1,7.1,0.1,10.6,0c2-0.1,3.7-1.5,4.1-3.4&#10;&#9;&#9;&#9;c0.4-2,0.8-4.2,1.1-6.3l0.1-0.8c0.1-1.4,1-2.5,2.3-3c2-0.8,3.9-1.6,5.9-2.4c1.1-0.5,2.3-0.4,3.3,0.3c0.9,0.7,1.8,1.3,2.7,2&#10;&#9;&#9;&#9;s1.9,1.3,2.8,2.1c1,0.7,2.1,1,3.3,1c1,0,2-0.4,2.7-1.1c1.8-1.6,3.4-3.3,5.1-5c0.6-0.6,1.1-1.2,1.7-1.7l0.1-0.1&#10;&#9;&#9;&#9;c1.9-1.7,2.2-4.6,0.6-6.6l-0.1-0.1l-3.9-5.4c-0.8-1-0.9-2.3-0.2-3.4l2.4-5.7c0.4-1.2,1.6-2.1,2.9-2.2c1.8-0.2,3.6-0.6,5.5-0.9&#10;&#9;&#9;&#9;l1-0.2c2.3-0.3,4.1-2.2,4.1-4.5c0.2-3.1,0.2-6.5,0.1-10.4c-0.1-2-1.5-3.7-3.4-4.1c-2.4-0.5-4.9-0.9-7.1-1.3&#10;&#9;&#9;&#9;c-1.5-0.1-2.8-1.2-3.1-2.7c-0.7-1.8-1.4-3.5-2.2-5.3c-0.6-1.1-0.5-2.5,0.3-3.5c1.4-1.9,2.9-3.9,4.2-6c1.1-1.7,1-3.9-0.4-5.4&#10;&#9;&#9;&#9;c-1.3-1.4-2.7-2.8-4.1-4.2c-0.9-0.9-1.9-1.9-2.8-2.9c-1.6-2-4.6-2.3-6.6-0.7l-5.4,3.9c-1,0.8-2.3,1-3.5,0.5l-1.5-0.6&#10;&#9;&#9;&#9;c-1.6-0.7-3-1.3-4.6-1.9c-1.3-0.4-2.2-1.5-2.3-2.8c-0.3-2.1-0.7-4.3-1.1-6.4c-0.4-2.3-2.3-4-4.6-4.2c-3.3-0.1-6.6-0.1-10.1,0&#10;&#9;&#9;&#9;c-2.1,0-3.8,1.5-4.3,3.5c-0.4,1.5-0.6,2.9-0.9,4.4c-0.2,1-0.3,1.9-0.5,2.9c-0.1,1.3-1,2.4-2.3,2.8c-1.9,0.7-3.8,1.5-5.7,2.4&#10;&#9;&#9;&#9;c-1.2,0.6-2.6,0.5-3.6-0.3c-2-1.5-4-2.9-5.9-4.2c-1.7-1.2-4-1-5.5,0.4c-2.5,2.3-5,4.8-7.3,7.3s-1.3,4.7-0.2,6.2&#10;&#9;&#9;&#9;c0.7,1,1.3,1.9,2,2.9s1.4,1.9,2,2.9c0.5,0.8,0.7,1.9,0.3,2.8c-0.8,2.1-1.7,4.3-2.7,6.6c0,0.1-0.1,0.2-0.2,0.3&#10;&#9;&#9;&#9;c-0.4,0.7-1.1,1.2-1.8,1.5c-0.1,0-0.2,0.1-0.3,0.1c-2.2,0.4-4.4,0.8-6.7,1.1c-2.3,0.2-4.1,2-4.3,4.3c-0.1,3.5-0.1,7,0,10.5&#10;&#9;&#9;&#9;c0,1.9,1.4,3.6,3.3,4c2.4,0.6,5,1,7.5,1.4c1.3,0.1,2.4,1,2.8,2.2c0.8,2,1.7,4,2.6,5.9c0.5,1.1,0.4,2.3-0.3,3.3&#10;&#9;&#9;&#9;c-1.4,1.8-2.7,3.7-3.9,5.5c0,0.1,0,0.1-0.1,0.1h0c-1.5,2-1.2,4.7,0.6,6.4c2.1,2.2,4.3,4.4,6.5,6.5c2.5,2.5,5,1.7,6.7,0.5&#10;&#9;&#9;&#9;s3.3-2.3,5.5-3.9c0.9-0.8,2.2-0.9,3.3-0.4L237.9,214.2z M251,200.7c-14.2,0-25.7-11.5-25.6-25.7s11.5-25.7,25.7-25.6&#10;&#9;&#9;&#9;s25.7,11.5,25.6,25.7c0,0,0,0,0,0c0.1,14.1-11.3,25.5-25.4,25.6C251.2,200.7,251.1,200.7,251,200.7L251,200.7z M250.9,153.4&#10;&#9;&#9;&#9;c-5.7,0-11.1,2.2-15.1,6.3c-8.5,8.4-8.5,22.1-0.1,30.6s22.1,8.5,30.6,0.1c8.5-8.4,8.5-22.1,0.1-30.6&#10;&#9;&#9;&#9;C262.3,155.7,256.7,153.4,250.9,153.4z"/>
	</g>
	<path class="st1_progress-38" d="M251,247.8c-1-0.1-1.8-1-1.7-2c0.1-0.9,0.8-1.6,1.7-1.7c38.1,0,69.1-31,69.1-69.1c0-1,0.8-1.9,1.9-1.9&#10;&#9;&#9;c1,0,1.9,0.8,1.9,1.9c0,0,0,0,0,0C323.8,215.2,291.2,247.7,251,247.8z"/>
	<path class="st1_progress-38" d="M180.1,176.9c-1,0-1.9-0.9-1.9-1.9l0,0c0-40.2,32.6-72.8,72.8-72.8c1,0,1.9,0.8,1.9,1.8c0,0.9-0.7,1.7-1.6,1.9&#10;&#9;&#9;H251c-38.1,0-69.1,31-69.1,69.1c0.1,1-0.6,1.8-1.6,1.9C180.2,176.9,180.2,176.9,180.1,176.9L180.1,176.9z"/>
	<path class="st1_progress-38" d="M242.8,115.3c-0.6,0-1.1-0.3-1.4-0.7c-0.6-0.8-0.5-2,0.3-2.6l0,0l9.3-7.5l-9.7-5c-0.9-0.5-1.2-1.7-0.6-2.6&#10;&#9;&#9;c0.5-0.8,1.5-1.1,2.3-0.7l12.3,6.3c0.9,0.5,1.3,1.6,0.8,2.5c0,0,0,0,0,0c-0.1,0.2-0.3,0.4-0.5,0.6l-11.5,9.3&#10;&#9;&#9;C243.7,115.1,243.3,115.3,242.8,115.3z"/>
	<path class="st1_progress-38" d="M261.4,255.2c-0.3,0-0.5-0.1-0.8-0.2l-13.5-6.2c-0.9-0.4-1.4-1.5-1-2.4c0.1-0.3,0.3-0.5,0.5-0.7l12-10.5&#10;&#9;&#9;c0.8-0.7,1.9-0.6,2.6,0.2c0.7,0.8,0.6,1.9-0.2,2.6l0,0l-9.8,8.6l10.8,5c0.9,0.5,1.3,1.6,0.9,2.5&#10;&#9;&#9;C262.8,254.8,262.1,255.3,261.4,255.2L261.4,255.2z"/>
</g>
<g id="character_2_progress-38">
	<path class="st5_progress-38" d="M357,305.7c0,0-16,5.4-17.8,8.6s-3.4,9-2.2,11.2s3.4,4.6,5.7,3.7s4.5-2.6,7.4-3.5s14.2-5.8,14.2-5.8L357,305.7&#10;&#9;&#9;z"/>
	<path class="st1_progress-38" d="M335.4,326.4c-1.8-3.4,0.5-10.1,2.2-13c2-3.6,15-8.1,18.9-9.4c0.9-0.3,1.8,0.1,2.3,0.9l7.4,14.1&#10;&#9;&#9;c0.2,0.5,0.3,1,0.1,1.5c-0.2,0.5-0.5,0.9-1,1.1c-0.5,0.2-11.4,4.8-14.4,5.8c-1.5,0.5-3,1.2-4.4,2c-0.9,0.5-1.9,1-2.9,1.5&#10;&#9;&#9;c-0.6,0.2-1.2,0.4-1.8,0.4C339.4,331.3,337.1,329.5,335.4,326.4z M356.1,308c-7,2.4-14.4,5.7-15.3,7.2c-1.9,3.3-2.8,8.1-2.1,9.4&#10;&#9;&#9;c0.9,1.7,2.4,3.2,3.3,2.8c0.9-0.4,1.7-0.8,2.6-1.3c1.6-0.9,3.3-1.7,5-2.3c2.1-0.7,8.9-3.5,12.2-4.9L356.1,308z"/>
	<path class="st1_progress-38" d="M436.7,344.5c-11.6,1.8-23.4-2.1-31.6-10.5l7-25.1l33.1,5.1C445.2,314,456.5,341.5,436.7,344.5z"/>
	<path class="st1_progress-38" d="M452.8,440.2l15-18.9c-30.2-22.1-48.5-39.1-51-46.9c-2-6.2,17.4-32.2,24.9-58.4l-39.3-3.3&#10;&#9;&#9;c-3.8,13.2-11.3,58.4-5.7,75.8C402,405.1,439.9,430.2,452.8,440.2z"/>
	<path class="st1_progress-38" d="M451.6,441.7c-2.2-1.7-5.2-3.9-8.7-6.5c-17.3-12.7-43.4-31.8-48-46c-6-18.4,2.3-65.2,5.6-76.9&#10;&#9;&#9;c0.2-0.9,1.1-1.5,2-1.4l39.4,3.3c0.6,0,1.1,0.3,1.4,0.8c0.3,0.5,0.4,1,0.3,1.6c-4,13.8-11.1,27.4-16.9,38.4&#10;&#9;&#9;c-4.3,8.2-8.8,16.7-8,18.9c2.4,7.5,21.3,24.6,50.4,45.9c0.8,0.6,1,1.8,0.4,2.6c0,0,0,0,0,0l-15,18.9c-0.6,0.8-1.8,0.9-2.6,0.3&#10;&#9;&#9;H451.6z M415,375.1c-1.2-3.6,1.9-9.6,8.3-21.8c5.4-10.2,11.9-22.7,15.9-35.4l-35.5-3c-3.7,14.3-10.6,57-5.3,73.2&#10;&#9;&#9;c4.2,13,30.8,32.5,46.7,44.1c2.8,2,5.3,3.9,7.3,5.4l12.6-15.9C447.2,408.5,418.6,386.1,415,375.1z"/>
	<polygon class="st1_progress-38" points="413.4,449.3 458,321.5 437.5,308 389.7,444.1 &#9;"/>
	<path class="st1_progress-38" d="M413,451.2l-23.7-5.2c-1-0.2-1.7-1.2-1.4-2.2c0-0.1,0-0.1,0.1-0.2l47.8-136.1c0.3-1,1.4-1.5,2.4-1.2&#10;&#9;&#9;c0.1,0,0.3,0.1,0.4,0.2l20.4,13.5c0.7,0.5,1,1.4,0.7,2.2l-44.5,127.8c-0.3,0.8-1,1.3-1.8,1.3C413.3,451.2,413.1,451.2,413,451.2z&#10;&#9;&#9; M438.5,310.9l-46.3,131.8l20,4.4l43.5-124.9L438.5,310.9z"/>
	<path class="st6_progress-38" d="M399.8,257.3c5.2-9.3,7.4-13.3,16.1-13.3h23.9c10,0,18.2,8.1,18.2,18.2c0,0,0,0,0,0v59.3h-60.2v-19.8&#10;&#9;&#9;c-11.2,13.4-26,25.4-44.3,28l-3.4-24C373.6,302.3,391.2,273,399.8,257.3z"/>
	<path class="st1_progress-38" d="M352.3,331.2c-0.4-0.3-0.7-0.7-0.7-1.2l-3.4-24c-0.1-0.5,0.1-1,0.4-1.4c0.3-0.4,0.7-0.7,1.2-0.7&#10;&#9;&#9;c24.2-3.5,42.5-36.6,48.5-47.5l0,0l0.1-0.3c5.2-9.3,7.9-14,17.6-14h23.9c11.1,0,20,9,20.1,20.1v59.3c0,1-0.8,1.9-1.9,1.9h-60.2&#10;&#9;&#9;c-1,0-1.9-0.9-1.9-1.9v-14.8c-13,14.3-27.2,22.7-42.2,24.8h-0.3C353,331.6,352.6,331.4,352.3,331.2z M398.4,300&#10;&#9;&#9;c0.7,0.3,1.2,1,1.2,1.8v17.9h56.5v-57.5c0-9-7.3-16.3-16.3-16.3h-23.9c-7.5,0-9.2,3-14.3,12.1l-0.1,0.3c-6.1,11-24.2,44-49.4,49&#10;&#9;&#9;l2.9,20.3c14.6-2.6,28.5-11.7,41.3-27c0.4-0.4,0.9-0.7,1.5-0.7C398,299.9,398.2,299.9,398.4,300z"/>
	<path class="st1_progress-38" d="M404,300.7c1,0,1.9-0.9,1.9-1.9v-29.2c0-1-0.8-1.9-1.9-1.9s-1.9,0.8-1.9,1.9v29.2&#10;&#9;&#9;C402.1,299.9,403,300.7,404,300.7z"/>
	<path class="st7_progress-38" d="M434.1,137.1c-3.7-0.5-7.4-0.7-11.1-0.6c-10.9,0.4-23.6,5.7-29.8,15.3c-1.4,2.4-2.6,4.8-3.5,7.4&#10;&#9;&#9;c-1.8,4.8-1.3,6,0.3,10.2s1,9.7,1.1,14.3c0.1,6.7-1.1,13.1,2.4,18.9c3.6,6,7.7,11.9,13.1,16.4c7,5.9,16.7,9.5,25.6,7.1&#10;&#9;&#9;c6.1-1.6,11.2-5.8,16.1-9.9c3.6-3,7.3-6.1,9.9-10c2.5-3.8,4.6-8.8,9-9.4c1.3,0,2.5-0.1,3.8-0.3c3.5-1.1,3.8-5.8,5.5-9&#10;&#9;&#9;c1.1-1.6,2.2-3,3.5-4.4c3.9-5.2,3.8-13.6-0.6-18.4c-2-2.3-4.2-3.6-6.1-6.2c-1.8-2.9-3.9-5.6-6.2-8c-2.5-2.2-5.2-4-8.1-5.4&#10;&#9;&#9;C451.3,140.9,442.8,138.3,434.1,137.1z"/>
	<path class="st1_progress-38" d="M426.4,228.4c-7,0-14.4-2.9-20.8-8.2c-4.8-4-9-9.4-13.4-16.8c-2.9-4.9-2.8-10.1-2.6-15.2c0-1.4,0.1-2.9,0-4.4&#10;&#9;&#9;c0-1.2,0-2.4,0-3.6c0.1-3.5,0.2-7.1-1-10.2c-1.7-4.4-2.3-6-0.3-11.3c1-2.7,2.2-5.3,3.7-7.7c6.8-10.6,20.4-15.6,31-16&#10;&#9;&#9;c3.8-0.1,7.6,0.1,11.4,0.6l0,0c8.9,1.2,17.5,4,25.5,8.1c3.1,1.5,5.9,3.4,8.5,5.6c2.2,2.2,4.2,4.7,5.9,7.4l0.6,0.9&#10;&#9;&#9;c1,1.3,2.1,2.5,3.4,3.6c0.9,0.8,1.8,1.6,2.6,2.5c4.8,5.3,5.1,14.5,0.6,20.4c-0.5,0.6-0.9,1.2-1.4,1.7c-0.8,0.8-1.4,1.6-2,2.6&#10;&#9;&#9;c-0.5,1-0.9,2-1.3,3.1c-1,2.6-2,5.6-5.1,6.6c-0.9,0.2-1.8,0.3-2.7,0.3c-0.4,0-0.9,0-1.3,0.1c-3,0.4-4.7,3.4-6.6,6.6&#10;&#9;&#9;c-0.5,0.8-0.9,1.5-1.4,2.2c-2.7,4.1-6.5,7.3-10.2,10.4c-4.7,3.9-10.1,8.4-16.7,10.2C430.7,228.2,428.5,228.4,426.4,228.4z&#10;&#9;&#9; M425.1,138c-0.7,0-1.4,0-2,0c-9.8,0.3-22.4,5-28.5,14.6c-1.3,2.3-2.5,4.7-3.3,7.2c-1.6,4.2-1.3,5.1,0.3,9.2&#10;&#9;&#9;c1.4,3.6,1.3,7.5,1.2,11.3c0,1.2,0,2.4,0,3.5c0,1.5,0,3.1,0,4.6c-0.1,4.9-0.2,9.5,2.2,13.6c4.2,7.2,8.3,12.3,12.8,16.1&#10;&#9;&#9;c7.5,6.3,16.6,8.9,24.3,6.8c5.9-1.6,11-5.8,15.5-9.6c3.5-2.9,7.1-5.9,9.6-9.7c0.4-0.7,0.9-1.4,1.3-2.1c2.1-3.4,4.4-7.4,8.8-8&#10;&#9;&#9;c0.6-0.1,1.1-0.1,1.7-0.1c0.6,0,1.2,0,1.8-0.2c1.6-0.5,2.2-2.1,3.2-4.8c0.4-1.2,0.9-2.4,1.5-3.5c0.7-1.1,1.4-2.1,2.3-3.1&#10;&#9;&#9;c0.5-0.5,0.9-1,1.3-1.5c3.5-4.7,3.3-12.3-0.5-16.6c-0.7-0.8-1.5-1.6-2.4-2.3c-1.4-1.2-2.7-2.6-3.8-4.1l-0.6-0.9&#10;&#9;&#9;c-1.6-2.5-3.4-4.8-5.5-6.8c-2.4-2.1-5-3.8-7.8-5.2c-7.6-4-15.9-6.7-24.5-7.8l0,0C431,138.2,428.1,138,425.1,138z"/>
	<path class="st5_progress-38" d="M429,254h-7.1c-1.6,0-3-1.3-3-2.9c0,0,0,0,0,0v-10.1l0,0h13l0,0V251C432,252.7,430.7,254,429,254z"/>
	<path class="st1_progress-38" d="M417,248.4v-7.5c0-1,0.8-1.9,1.9-1.9l0,0H432c1,0,1.9,0.8,1.9,1.9c0,0,0,0,0,0v7.5c0,4.1-3.3,7.4-7.4,7.4h-2&#10;&#9;&#9;C420.3,255.9,417,252.6,417,248.4C417,248.4,417,248.4,417,248.4z M420.8,242.8v5.6c0,2,1.6,3.7,3.7,3.7h2c2,0,3.7-1.6,3.7-3.7&#10;&#9;&#9;v-5.6H420.8z"/>
	<ellipse class="st5_progress-38" cx="391.6" cy="208.3" rx="9.8" ry="10.9"/>
	<path class="st1_progress-38" d="M379.9,208.3c0-7.1,5.2-12.8,11.7-12.8s11.7,5.8,11.7,12.8s-5.3,12.8-11.7,12.8S379.9,215.4,379.9,208.3z&#10;&#9;&#9; M383.7,208.3c0,5,3.5,9.1,7.9,9.1s7.9-4.1,7.9-9.1s-3.5-9.1-7.9-9.1S383.7,203.3,383.7,208.3L383.7,208.3z"/>
	<path class="st5_progress-38" d="M425.9,244c21.5,0,40.7-26.5,40.7-47.7l-5.1,1.9l0.2-15c0,0-26.9-7.1-23.4-19.6c0,0-7.9,9.4-19.2,9.4&#10;&#9;&#9;c-20.9-0.1-29-5.6-29-5.6v38.3C390,226.8,404.4,244,425.9,244z"/>
	<path class="st1_progress-38" d="M388.1,205.7v-38.3c0-1,0.9-1.9,1.9-1.9c0.4,0,0.7,0.1,1,0.3c0.1,0,8.1,5.2,28,5.3l0,0&#10;&#9;&#9;c10.3,0,17.7-8.6,17.8-8.7c0.7-0.8,1.8-0.9,2.6-0.2c0.6,0.5,0.8,1.3,0.6,2c-0.5,1.7-0.2,3.6,0.7,5.1c4.4,7.7,21.2,12.2,21.4,12.2&#10;&#9;&#9;c0.8,0.2,1.4,1,1.4,1.9l-0.1,12.2l2.5-1c1-0.4,2.1,0.1,2.4,1.1c0.1,0.2,0.1,0.4,0.1,0.6c0,21.9-20.1,49.6-42.6,49.6&#10;&#9;&#9;C404,245.9,388.1,229,388.1,205.7z M462.1,200c-0.6,0.2-1.2,0.1-1.8-0.2c-0.5-0.4-0.8-0.9-0.8-1.6l0.2-13.5&#10;&#9;&#9;c-4.5-1.3-17.9-5.9-22.2-13.6c-0.5-0.9-0.9-1.9-1.2-3c-3.5,2.9-9.6,6.8-17.2,6.8H419c-14.5,0-23.1-2.7-27.1-4.4v35.2&#10;&#9;&#9;c0,21.1,14.3,36.4,34,36.4c16.5,0,37.2-19.9,38.8-43L462.1,200z"/>
	<ellipse class="st1_progress-38" cx="435.5" cy="200.9" rx="3.5" ry="3.5"/>
	<circle class="st1_progress-38" cx="401.4" cy="200.9" r="3.5"/>
	<path class="st1_progress-38" d="M416.7,211.4c1.2,0,2.4-0.1,3.6-0.3c1-0.1,1.8-1.1,1.6-2.1s-1.1-1.8-2.1-1.6c-0.1,0-0.1,0-0.2,0&#10;&#9;&#9;c-1.4,0.2-2.9,0.3-4.3,0.2c0.6-2.6,1.6-5.1,2.9-7.4c0.5-0.9,0.1-2.1-0.8-2.5c-0.9-0.5-2.1-0.1-2.5,0.8l0,0c-1.6,3.1-4.1,8.6-3,11.1&#10;&#9;&#9;c0.3,0.8,1,1.3,1.8,1.5C414.6,211.3,415.6,211.4,416.7,211.4z"/>
	<path class="st1_progress-38" d="M448.7,195.2c2.1,0,3.8-1.6,3.8-3.7c0-1.8-1.3-3.4-3.1-3.7l-16.6-3.2c-2-0.4-4,0.9-4.4,3c-0.4,2,0.9,4,3,4.4&#10;&#9;&#9;l16.7,3.2C448.2,195.2,448.4,195.2,448.7,195.2z"/>
	<path class="st1_progress-38" d="M397.8,192.1h0.2l16.9-0.8c2.1-0.1,3.7-1.8,3.6-3.9c-0.1-2.1-1.8-3.7-3.9-3.6l-16.9,0.8&#10;&#9;&#9;c-2.1,0.1-3.6,1.9-3.5,4C394.2,190.5,395.8,192.1,397.8,192.1L397.8,192.1z"/>
	<path class="st5_progress-38" d="M458.9,199c0,0,9.4-6.5,14.4,1.9s0.2,22.6-15.3,18.4"/>
	<path class="st1_progress-38" d="M463.1,221.9c4.3,0.2,8.5-1.7,11.1-5.2c3.5-5,3.8-11.6,0.6-16.8c-1.4-2.5-3.7-4.3-6.5-5&#10;&#9;&#9;c-5.2-1.1-10.3,2.4-10.5,2.5c-0.9,0.6-1.1,1.8-0.5,2.6c0.6,0.9,1.8,1.1,2.6,0.5l0,0l0,0c0,0,4-2.7,7.6-1.9c1.8,0.4,3.3,1.6,4.1,3.2&#10;&#9;&#9;c2.3,3.9,2.2,8.9-0.4,12.6c-2.6,3.4-7.1,4.5-12.8,3c-1-0.3-2,0.3-2.3,1.3c-0.3,1,0.3,2,1.3,2.3l0,0&#10;&#9;&#9;C459.3,221.6,461.2,221.9,463.1,221.9z"/>
	<path class="st1_progress-38" d="M420.9,227.9c1.3,0,2.6-0.1,3.9-0.4c5-1.2,9.2-4.6,12.3-10.2c0.5-0.9,0.2-2.1-0.7-2.6s-2.1-0.2-2.6,0.7&#10;&#9;&#9;c-2.6,4.6-5.9,7.5-9.9,8.4c-6.7,1.6-13.2-2.8-13.2-2.8c-0.9-0.6-2-0.4-2.6,0.5c-0.6,0.9-0.4,2,0.5,2.6l0,0&#10;&#9;&#9;C412.3,226.5,416.6,227.8,420.9,227.9z"/>
	<path class="st2_progress-38 targetColor" d="M413.4,449.3l-5,15.1l-39.4-13c-0.7-0.2-1.1-1-0.9-1.7c0.1-0.4,0.5-0.8,1-0.9l23-5.8L413.4,449.3z" style="fill: rgb(104, 225, 253);"/>
	<path class="st1_progress-38" d="M407.8,466.2l-39.4-13c-1.7-0.5-2.6-2.4-2.1-4c0.3-1.1,1.2-1.9,2.3-2.1l23-5.8c0.3-0.1,0.7-0.1,1,0l21.4,6.3&#10;&#9;&#9;c1,0.3,1.6,1.3,1.3,2.3c0,0,0,0.1,0,0.1l-5,15.1c-0.3,0.8-1,1.3-1.8,1.3C408.2,466.3,408,466.3,407.8,466.2z M392,445l-20.6,5.2&#10;&#9;&#9;l35.8,11.7l3.8-11.4L392,445z"/>
	<path class="st2_progress-38 targetColor" d="M467.8,421.3l12,10.9l-28.9,30.2c-0.4,0.4-1,0.3-1.4-0.1c-0.2-0.2-0.3-0.4-0.2-0.7l2.4-24.6L467.8,421.3z" style="fill: rgb(104, 225, 253);"/>
	<path class="st1_progress-38" d="M448.9,464.3c-1.1-0.5-1.8-1.7-1.6-2.9l2.4-24.7c0-0.4,0.2-0.9,0.6-1.2l16.2-15.6c0.7-0.7,1.8-0.7,2.6,0&#10;&#9;&#9;l12,10.9c0.4,0.3,0.6,0.8,0.6,1.3c0,0.5-0.2,1-0.5,1.4l-28.9,30.2c-0.5,0.6-1.3,0.9-2,0.9C449.7,464.6,449.3,464.5,448.9,464.3z&#10;&#9;&#9; M467.8,423.9l-14.4,13.9l-2.1,21.3l25.8-26.9L467.8,423.9z"/>
	<path class="st0_progress-38" d="M404,400.5c0.4,0,0.8-0.3,0.9-0.6l25.5-72.7c0.2-0.5-0.1-1-0.6-1.2c-0.5-0.2-1,0.1-1.2,0.6l-25.5,72.7&#10;&#9;&#9;c-0.1,0.5,0.1,1,0.6,1.2C403.8,400.5,403.9,400.5,404,400.5z"/>
	<g id="tab-1_progress-38">
		<path class="st0_progress-38" d="M325.2,238.3h92.3v79.6c0,1.5-1.3,2.8-2.8,2.8H328c-1.5,0-2.8-1.3-2.8-2.8l0,0L325.2,238.3L325.2,238.3z"/>
		<path class="st1_progress-38" d="M412.3,322.6h-81.8c-3.9,0-7.1-3.2-7.1-7.1v-77.1c0-1,0.9-1.9,1.9-1.9h92.3c1,0,1.9,0.9,1.9,1.9v77.1&#10;&#9;&#9;&#9;C419.4,319.4,416.2,322.5,412.3,322.6z M327.1,240.2v75.2c0,1.9,1.5,3.4,3.3,3.4c0,0,0,0,0.1,0h81.8c1.9,0,3.4-1.5,3.4-3.3&#10;&#9;&#9;&#9;c0,0,0,0,0-0.1l0,0v-75.2L327.1,240.2z"/>
		<path class="st8_progress-38" d="M328,226.4h86.7c1.5,0,2.8,1.3,2.8,2.8v9.1h-92.3v-9.1C325.2,227.6,326.5,226.4,328,226.4z"/>
		<path class="st1_progress-38" d="M417.5,240.2h-92.3c-1,0-1.9-0.9-1.9-1.9v-6.7c0-3.9,3.2-7.1,7.1-7.1h81.8c3.9,0,7.1,3.2,7.1,7.1v6.7&#10;&#9;&#9;&#9;c0.1,0.9-0.6,1.8-1.5,1.9C417.7,240.2,417.6,240.2,417.5,240.2z M327.1,236.5h88.6v-4.8c0-1.9-1.5-3.4-3.3-3.4c0,0,0,0-0.1,0&#10;&#9;&#9;&#9;h-81.8c-1.9,0-3.4,1.5-3.4,3.3c0,0,0,0,0,0.1l0,0V236.5z"/>
		<path class="st3_progress-38" d="M373.2,309c-16.3,0-29.5-13.2-29.5-29.5c0,0,0,0,0,0c0.1-1,1-1.8,2-1.7c0.9,0.1,1.6,0.8,1.7,1.7&#10;&#9;&#9;&#9;c0,14.3,11.5,25.9,25.8,25.9c14.3,0,25.9-11.5,25.9-25.8c0-14.3-11.5-25.9-25.8-25.9c-8,0-15.5,3.6-20.4,9.9&#10;&#9;&#9;&#9;c-0.6,0.8-1.8,0.9-2.6,0.3c-0.8-0.6-0.9-1.8-0.3-2.6l0,0c10.2-12.7,28.8-14.6,41.5-4.4c12.4,10,14.6,28.1,4.9,40.8&#10;&#9;&#9;&#9;C390.8,304.9,382.3,309,373.2,309z"/>
		<path class="st3_progress-38" d="M360,267.2h-0.2l-10.1-1.3c-0.9-0.1-1.6-1-1.6-1.9v-9.4c0.1-1,1-1.8,2-1.7c0.9,0.1,1.6,0.8,1.7,1.7v7.8l8.5,1&#10;&#9;&#9;&#9;c1,0.1,1.8,1,1.7,2C361.8,266.3,361,267,360,267.2z"/>
		<path class="st3_progress-38" d="M385.8,292c-0.4,0-0.8-0.2-1.2-0.4L372,281c-0.4-0.4-0.7-0.9-0.7-1.4v-17.7c0.1-1,1-1.8,2-1.7&#10;&#9;&#9;&#9;c0.9,0.1,1.6,0.8,1.7,1.7v16.9l11.9,10.1c0.8,0.6,0.9,1.7,0.3,2.5c0,0,0,0.1-0.1,0.1C386.8,291.9,386.3,292,385.8,292z"/>
		<path class="st5_progress-38" d="M362.9,312.8c0,0-16.9,0.2-19.6,2.7s-5.9,7.5-5.5,10s1.8,5.5,4.3,5.2s5.1-1.1,8.2-1.1s15.3-1.2,15.3-1.2&#10;&#9;&#9;&#9;L362.9,312.8z"/>
		<path class="st1_progress-38" d="M336,325.9c-0.7-3.8,3.6-9.5,6-11.7c3-2.8,16.7-3.2,20.8-3.2c0.9,0,1.7,0.7,1.9,1.6l2.7,15.7&#10;&#9;&#9;&#9;c0.1,0.5,0,1-0.4,1.5c-0.3,0.4-0.8,0.7-1.3,0.7c-0.5,0-12.3,1.2-15.5,1.2c-1.6,0-3.2,0.2-4.8,0.6c-1,0.2-2.1,0.4-3.2,0.5&#10;&#9;&#9;&#9;c-0.1,0-0.3,0-0.4,0C339,332.7,336.7,330.1,336,325.9z M361.3,314.8c-7.4,0.2-15.5,1.1-16.7,2.2c-2.8,2.5-5.1,6.9-4.9,8.3&#10;&#9;&#9;&#9;c0.3,1.9,1.2,3.8,2.3,3.7c1-0.1,1.9-0.3,2.8-0.5c1.8-0.4,3.7-0.6,5.5-0.7c2.2,0,9.5-0.6,13.1-1L361.3,314.8z"/>
		<path class="st6_progress-38" d="M429.5,263.6c-6.5,11.4-26.3,38.2-72.6,46.3L359,334c0,0,1.4-0.1,2.1-0.2c53.6-9.4,78.8-40.3,88.5-56.5"/>
		<path class="st1_progress-38" d="M359,335.9L359,335.9c0.2,0,1.6-0.1,2.4-0.2c53.8-9.4,79.4-40,89.8-57.4c0.5-0.9,0.2-2-0.6-2.6&#10;&#9;&#9;&#9;c-0.9-0.5-2-0.2-2.6,0.6l0,0c-10.1,16.9-35,46.5-87.2,55.6h-0.1l-1.8-20.5c46-8.6,65.8-35.6,72.2-46.9c0.4-0.9,0.1-2.1-0.9-2.5&#10;&#9;&#9;&#9;c-0.8-0.4-1.9-0.1-2.4,0.7c-6.2,11-25.7,37.4-71.3,45.3c-1,0.2-1.6,1-1.5,2l2.1,24.1C357.2,335.1,358,335.9,359,335.9z"/>
	</g>
</g>
<g id="character_1_progress-38">
	<path class="st2_progress-38 targetColor" d="M126.6,242.3c7.2-4.7,14-10,20.2-15.9c-2.2-4.7-5.1-9.1-8.6-12.9c-13.7,10.3-29.2,17.8-45.2,23.9&#10;&#9;&#9;c-6.1,2.3-12.2,4.4-18.4,6.4c-4.9,1.6-8.5,7-10,11.9c-1.2,3.9-0.8,8.6,2.1,11.6c1.8,1.7,4.1,2.8,6.5,3.2c6.1,1.1,10.9-1.1,15.7-4.4&#10;&#9;&#9;C101.1,257.6,114.2,250.5,126.6,242.3z" style="fill: rgb(104, 225, 253);"/>
	<path class="st1_progress-38" d="M72.8,272.5c-2.8-0.4-5.5-1.8-7.6-3.8c-3.2-3.2-4.2-8.6-2.6-13.6C64.2,250.3,68,244,74,242l3-1&#10;&#9;&#9;c5-1.7,10.2-3.4,15.3-5.4C110.4,228.7,125,221,137,212l1.4-1.1l1.2,1.3c3.7,4,6.7,8.5,9,13.4l0.6,1.3l-1,1&#10;&#9;&#9;c-6.4,6-13.2,11.3-20.6,16l0,0c-5.6,3.7-11.4,7.2-17.1,10.6c-6.9,4.1-14,8.4-20.6,13c-3.9,2.7-8.2,5.1-13.6,5.1&#10;&#9;&#9;C75.2,272.8,74,272.7,72.8,272.5z M125.5,240.7c6.7-4.3,13-9.3,18.9-14.7c-1.8-3.5-3.9-6.8-6.5-9.8c-12,8.7-26.5,16.3-44.2,23&#10;&#9;&#9;c-5.1,2-10.4,3.7-15.4,5.4l-3,1c-4.2,1.4-7.4,6.4-8.8,10.6c-1.1,3.6-0.5,7.4,1.7,9.6c1.5,1.4,3.4,2.3,5.4,2.6&#10;&#9;&#9;c5.4,1,9.6-0.9,14.2-4.1c6.7-4.7,13.9-9,20.8-13.2C114.2,247.8,120,244.3,125.5,240.7L125.5,240.7z"/>
	<g id="tab-2_progress-38">
		<path class="st0_progress-38" d="M101.1,159.1h111.2V229c0,2.2-1.8,4.1-4,4.1c0,0-0.1,0-0.1,0h-103c-2.2,0-4.1-1.8-4.1-4c0,0,0-0.1,0-0.1&#10;&#9;&#9;&#9;L101.1,159.1L101.1,159.1z"/>
		<path class="st1_progress-38" d="M204.7,234.9h-96c-5.2,0-9.5-4.3-9.5-9.5v-66.3c0-1,0.9-1.9,1.9-1.9h111.2c1,0,1.9,0.9,1.9,1.9l0,0v66.3&#10;&#9;&#9;&#9;C214.1,230.6,209.9,234.8,204.7,234.9z M102.9,161v64.4c0,3.2,2.6,5.8,5.8,5.8h96c3.2,0,5.8-2.6,5.8-5.8v-64.5H102.9V161z"/>
		<path class="st6_progress-38" d="M105.2,148.6h103c2.2,0,4.1,1.8,4.1,4c0,0,0,0.1,0,0.1v6.4H101.1v-6.4C101.1,150.4,102.9,148.6,105.2,148.6z"/>
		<path class="st1_progress-38" d="M212.3,161H101.1c-1,0-1.9-0.9-1.9-1.9v-2.9c0-5.2,4.3-9.5,9.5-9.5l0,0h96c5.2,0,9.5,4.3,9.5,9.5l0,0v2.9&#10;&#9;&#9;&#9;C214.1,160.1,213.3,160.9,212.3,161z M102.9,157.3h107.5v-1c0-3.2-2.6-5.8-5.8-5.8h-96c-3.2,0-5.8,2.6-5.8,5.8L102.9,157.3z"/>
		<path class="st3_progress-38" d="M114.4,210.4c-1,0-1.9-0.8-1.9-1.8c0-0.6,0.3-1.1,0.7-1.5l24.2-19.7c0.7-0.6,1.7-0.6,2.4,0l22.3,18.7&#10;&#9;&#9;&#9;l30.9-23.9c0.8-0.6,2-0.5,2.6,0.3c0.6,0.8,0.5,2-0.3,2.6l0,0l-32.1,24.8c-0.7,0.5-1.6,0.5-2.3,0l-22.2-18.6l-23,18.7&#10;&#9;&#9;&#9;C115.3,210.2,114.8,210.3,114.4,210.4z"/>
		<path class="st3_progress-38" d="M197.7,194.4h-0.3c-1-0.2-1.7-1.1-1.5-2.1c0,0,0,0,0,0l2.1-12.2h-12.1c-1-0.1-1.8-1-1.7-2&#10;&#9;&#9;&#9;c0.1-0.9,0.8-1.6,1.7-1.7h14.3c1,0,1.9,0.9,1.9,1.9v0.3l-2.4,14.3C199.4,193.7,198.6,194.3,197.7,194.4z"/>
	</g>
	<g id="character-1_progress-38">
		<path class="st5_progress-38" d="M45.2,237.5H67l0,0v18.2c0,2-1.6,3.6-3.5,3.6c0,0,0,0,0,0H48.7c-2,0-3.5-1.6-3.5-3.6l0,0&#10;&#9;&#9;&#9;C45.2,255.8,45.2,237.5,45.2,237.5z"/>
		<path class="st1_progress-38" d="M43.7,255.8V236h24.8v19.8c0,2.8-2.2,5-5,5H48.7C46,260.8,43.7,258.5,43.7,255.8z M46.7,239v16.8&#10;&#9;&#9;&#9;c0,1.1,0.9,2.1,2,2.1c0,0,0,0,0,0h14.7c1.1,0,2-0.9,2-2.1V239L46.7,239z"/>
		<rect x="34.2" y="327.4" class="st1_progress-38" width="17.2" height="117.7"/>
		<path class="st1_progress-38" d="M51.5,446.6H34.2c-0.8,0-1.5-0.7-1.5-1.5V327.4c0-0.8,0.7-1.5,1.5-1.5h17.2c0.8,0,1.5,0.7,1.5,1.5v117.7&#10;&#9;&#9;&#9;C53,445.9,52.3,446.6,51.5,446.6z M35.7,443.6H50V328.9H35.7V443.6z"/>
		<rect x="70.6" y="327.4" class="st1_progress-38" width="17.2" height="117.7"/>
		<polygon class="st1_progress-38" points="89.2,359.4 32.7,359.5 32.7,327.4 89.4,327.4 &#9;&#9;"/>
		<path class="st1_progress-38" d="M87.9,446.6H70.6c-0.8,0-1.5-0.7-1.5-1.5V327.4c0-0.8,0.7-1.5,1.5-1.5h17.3c0.8,0,1.5,0.7,1.5,1.5v117.7&#10;&#9;&#9;&#9;C89.4,445.9,88.7,446.6,87.9,446.6z M72.1,443.6h14.3V328.9H72.1V443.6z"/>
		<path class="st9_progress-38" d="M51.5,445.1v13.2H21c0,0,1.6-10.2,13.8-13.2H51.5z"/>
		<path class="st1_progress-38" d="M51.5,459.8H21c-0.4,0-0.9-0.2-1.1-0.5c-0.3-0.3-0.4-0.8-0.3-1.2c0.1-0.5,1.9-11.2,14.9-14.4&#10;&#9;&#9;&#9;c0.1,0,0.2,0,0.4,0h16.7c0.8,0,1.5,0.7,1.5,1.5v13.2C52.9,459.2,52.3,459.8,51.5,459.8z M22.9,456.8H50v-10.2H35&#10;&#9;&#9;&#9;C26.9,448.7,24,454,22.9,456.8z"/>
		<path class="st9_progress-38" d="M70.6,445.1v13.2h30.5c0,0-1.6-10.2-13.8-13.2H70.6z"/>
		<path class="st1_progress-38" d="M101.1,459.8H70.6c-0.8,0-1.5-0.7-1.5-1.5v-13.2c0-0.8,0.7-1.5,1.5-1.5l0,0h16.7c0.1,0,0.2,0,0.4,0&#10;&#9;&#9;&#9;c12.9,3.2,14.8,14,14.9,14.4c0.1,0.8-0.4,1.6-1.2,1.7C101.3,459.8,101.2,459.8,101.1,459.8L101.1,459.8z M72.1,456.8h27&#10;&#9;&#9;&#9;c-1-2.8-4-8.1-12-10.2h-15L72.1,456.8z"/>
		<path class="st5_progress-38" d="M143.5,225.5c0.1-0.9,1.3-1.5,2.1-2.1c1.1-0.9,2.1-1.8,3.2-2.7c1.3-1.2,2.7-2.3,4-3.5c0,0,2.2-6.6,3.4-9.8&#10;&#9;&#9;&#9;s3.9-2.8,4-1s-1.2,6.6-1.1,6.6s7.7-9,8.8-9.1s8.7,8.4,8,11.8c-0.4,1.6-3.9,6.2-7.6,10.5c-1,1.2-7,2.4-7,2.4&#10;&#9;&#9;&#9;c-1.7,1.1-3.3,2.1-5,3.2c-1.2,0.8-2.4,1.5-3.6,2.2c-0.6,0.4-1.1,0.9-1.9,0.6s-1.2-1.2-1.7-1.8c-0.3-0.3-2.5-2.6-2.4-2.9&#10;&#9;&#9;&#9;c-0.9-1.1-1.8-2.3-2.8-3.4C143.6,226.3,143.5,225.9,143.5,225.5z"/>
		<path class="st1_progress-38" d="M150.1,236.6c-0.9-0.4-1.7-1.1-2.2-2c-0.1-0.1-0.2-0.3-0.3-0.4l-0.4-0.4c-0.9-0.8-1.6-1.8-2.3-2.8l-0.7-0.9&#10;&#9;&#9;&#9;c-0.6-0.7-1.2-1.5-1.8-2.2c-0.7-0.7-1-1.7-0.9-2.7l0,0c0.3-1.3,1.1-2.4,2.3-3l0.5-0.4c1-0.9,2.1-1.8,3.1-2.7l3.6-3.1&#10;&#9;&#9;&#9;c0.6-1.6,2.3-6.6,3.3-9.3c1.2-3,3.4-3.9,4.9-3.6c1.6,0.2,2.8,1.6,2.9,3.2c0,0.1,0,0.2,0,0.3c3.7-4.1,4.5-4.6,5.5-4.7&#10;&#9;&#9;&#9;s1.9,0.1,4.6,3.1c1.5,1.7,6.4,7.4,5.6,11.1c-0.5,2.3-4.7,7.5-8.1,11.4c-1.2,1.4-4.8,2.3-7.7,3c-1.6,1-3.1,2-4.7,3&#10;&#9;&#9;&#9;c-0.8,0.5-1.6,1-2.4,1.5l-1.3,0.8c-0.1,0.1-0.2,0.1-0.3,0.2c-0.6,0.5-1.4,0.8-2.2,0.8C150.8,236.8,150.4,236.7,150.1,236.6z&#10;&#9;&#9;&#9; M173.9,215.4c0.3-1.5-3.8-7.1-6-9c-1.5,1.4-4.4,4.8-5.7,6.2c-2.2,2.4-2.6,3-4,2.4c-1.6-0.7-1.2-2.1-0.9-3.7&#10;&#9;&#9;&#9;c0.1-0.7,0.4-1.9,0.6-2.9c-1.2,3.2-3.3,9.4-3.3,9.4l-0.2,0.5l-0.4,0.4c-1.3,1.2-2.7,2.3-4,3.5c-1,0.9-2.1,1.8-3.2,2.7&#10;&#9;&#9;&#9;c-0.2,0.2-0.5,0.4-0.7,0.6l-0.4,0.3c0.5,0.6,1,1.2,1.5,1.9l0.9,1.1l0.7,0.9l-0.1,0.1c0.4,0.5,1,1.1,1.2,1.3s0.4,0.5,0.5,0.6&#10;&#9;&#9;&#9;s0.3,0.4,0.4,0.6s0.2,0.2,0.2,0.3l0.3-0.2l1.3-0.8c0.8-0.5,1.6-1,2.4-1.4c1.7-1,3.3-2.1,5-3.1l0.3-0.2l0.4-0.1&#10;&#9;&#9;&#9;c2-0.3,4-0.9,5.9-1.8C171.7,219.4,173.8,216.2,173.9,215.4z M145.4,226.1L145.4,226.1z M166.8,225L166.8,225z"/>
		<path class="st5_progress-38" d="M73.4,244.6c0,0-52.4-12.4-52.4-33.7v-20.7c0,0,9.7-5.5,12.6-14.3c0,0,18.4,7,29.1,7&#10;&#9;&#9;&#9;c21-0.1,35.4-7.6,35.4-7.6v35.7C98,232.2,94.7,244.6,73.4,244.6z"/>
		<path class="st1_progress-38" d="M73,246.1c-2.2-0.5-53.5-13-53.5-35.2v-21.6l0.8-0.4c0.1-0.1,9.2-5.4,11.9-13.4l0.5-1.5l1.5,0.6&#10;&#9;&#9;&#9;c0.2,0.1,18.2,6.9,28.5,6.9h0.1c20.3-0.1,34.5-7.4,34.7-7.4l2.2-1.1v38.1c0,18.6-2,35.2-26.2,35.2h-0.1L73,246.1z M62.6,184.3&#10;&#9;&#9;&#9;L62.6,184.3c-9.3,0-23.7-4.9-28.2-6.5c-3,7-9.7,11.7-12,13.2v19.9c0,10.2,13.7,18.4,25.3,23.5c8.4,3.6,17,6.5,25.8,8.8&#10;&#9;&#9;&#9;c15.2,0,23-5.1,23-32.2v-33.3C85.8,182.1,74.3,184.4,62.6,184.3z"/>
		<path class="st1_progress-38" d="M52,215.1c0.7,0,1.3-0.4,1.5-1.1c0.2-0.7-0.2-1.5-0.9-1.8c-0.1-0.1-0.1-0.2-0.1-0.2c-0.6-1.1-0.8-2.3-0.7-3.6&#10;&#9;&#9;&#9;c0.1-0.8-0.5-1.6-1.3-1.6c0,0,0,0,0,0c-0.8-0.1-1.5,0.5-1.7,1.3c-0.2,1.8,0.2,3.6,1,5.2c0.3,0.8,1,1.4,1.8,1.8&#10;&#9;&#9;&#9;C51.7,215,51.9,215.1,52,215.1z"/>
		<path class="st1_progress-38" d="M88.4,195.2c0,2-1.6,3.6-3.6,3.6s-3.6-1.6-3.6-3.6c0-2,1.6-3.6,3.6-3.6c0,0,0,0,0,0&#10;&#9;&#9;&#9;C86.8,191.6,88.4,193.2,88.4,195.2C88.4,195.2,88.4,195.2,88.4,195.2z"/>
		<path class="st1_progress-38" d="M94.1,214c-1.2,0-2.4-0.1-3.6-0.3c-0.9-0.1-1.4-1-1.3-1.8c0.1-0.9,1-1.4,1.8-1.3c1.6,0.3,3.2,0.3,4.8,0.1&#10;&#9;&#9;&#9;c-0.1-1.3-1.3-4.7-3-7.8c-0.4-0.8-0.1-1.7,0.7-2.1c0.8-0.4,1.7-0.1,2.1,0.7c1.6,3,4.1,8.5,3,10.9c-0.3,0.7-0.9,1.2-1.6,1.4&#10;&#9;&#9;&#9;C96,213.9,95,214,94.1,214z"/>
		<path class="st2_progress-38 targetColor" d="M136.4,248.2c7.2-4.7,14-10,20.2-15.9c-2.2-4.7-5.1-9.1-8.6-12.9c-13.7,10.3-29.2,17.8-45.2,23.9&#10;&#9;&#9;&#9;c-8,3.1-16.2,5.8-24.4,8.3c-7.9,2.5-15.5,1.4-23.7,1.3c-4.8-0.1-12.7,0.7-16.6,3.7c-6,4.7-9,12.8-9.6,20.1&#10;&#9;&#9;&#9;c-0.6,7.5,0.7,15.1,0.9,22.7c0.2,5.5-2.7,25.9,3.7,27.6c3.8,1,9.2,0,13,0h43.7l0.1-22.4v-10.8c0-3.3,0.3-6.5,0.6-9.8&#10;&#9;&#9;&#9;c0.1-1.5,0.3-2.9,0.6-4.4c1-3.3,4.7-5.8,7.4-7.7C110.9,263.5,124.1,256.4,136.4,248.2z" style="fill: rgb(104, 225, 253);"/>
		<path class="st1_progress-38" d="M32.8,329c-6.6-1.8-5.9-14.8-5.4-24.3c0.1-2.2,0.2-4.1,0.2-5.2c-0.1-2.6-0.3-5.2-0.5-7.8&#10;&#9;&#9;&#9;c-0.6-5-0.7-10.1-0.4-15.2c0.7-9,4.6-17.1,10.3-21.6c5.2-4.1,15.8-4.1,17.8-4.1c1.7,0,3.4,0.1,5.1,0.2c6.2,0.2,12,0.5,17.9-1.4&#10;&#9;&#9;&#9;c9.5-3,17.2-5.6,24.3-8.3c18.1-6.9,32.7-14.6,44.7-23.6l1.4-1.1l1.2,1.3c3.7,4,6.7,8.5,9,13.4l0.6,1.3l-1,1&#10;&#9;&#9;&#9;c-6.3,6-13.2,11.4-20.5,16.1l0,0c-5.6,3.7-11.4,7.2-17.1,10.7c-6.9,4.1-14,8.4-20.6,13l-0.2,0.2c-2.4,1.6-5.7,3.9-6.4,6.5&#10;&#9;&#9;&#9;c-0.3,1.3-0.5,2.6-0.6,3.9l-0.1,1.7c-0.2,2.8-0.4,5.3-0.4,8L92.1,329H46.4c-1.2,0-2.5,0.1-3.9,0.2s-3.2,0.2-4.9,0.2&#10;&#9;&#9;&#9;C36,329.5,34.4,329.3,32.8,329z M88.1,293.9c0-2.8,0.2-5.6,0.4-8.3l0.1-1.7c0.1-1.6,0.3-3.2,0.7-4.8c1.2-3.9,5.1-6.6,8-8.6&#10;&#9;&#9;&#9;l0.2-0.1c6.8-4.7,13.9-9,20.8-13.2c5.6-3.4,11.4-6.9,16.9-10.6l0,0c6.7-4.3,13-9.3,18.9-14.7c-1.8-3.5-3.9-6.8-6.5-9.8&#10;&#9;&#9;&#9;c-12,8.7-26.5,16.3-44.2,23c-7.1,2.7-14.9,5.4-24.5,8.4c-6.6,2-12.7,1.8-19.3,1.5c-1.7-0.1-3.3-0.1-5-0.2&#10;&#9;&#9;&#9;c-5.4-0.1-12.2,0.9-15.3,3.3c-4.9,3.8-8.2,10.8-8.8,18.7c-0.3,4.8-0.1,9.7,0.4,14.5c0.2,2.6,0.4,5.3,0.5,8c0,1.3,0,3.2-0.2,5.5&#10;&#9;&#9;&#9;c-0.3,5.3-1,19.3,2.4,20.2c2.2,0.6,5.5,0.4,8.3,0.2c1.5-0.1,2.9-0.2,4.2-0.2h41.7L88.1,293.9z"/>
	</g>
	<path class="st1_progress-38" d="M88.1,225c1,0.3,2,0.2,2.9-0.2c0.4-0.2,0.7-0.6,0.8-1c0.1-0.4,0-0.8-0.2-1.2c-0.8-1.4-2.9-0.9-4.4-1.3&#10;&#9;&#9;c-1.4-0.3-2.7-0.8-4-1.4c-1.3-0.6-2.6-1.5-3.7-2.4c-0.8-0.5-1.9-0.2-2.4,0.6c-0.4,0.6-0.3,1.4,0.1,2&#10;&#9;&#9;C80.3,222.6,84.1,224.4,88.1,225z"/>
	<path class="st7_progress-38" d="M90.1,182c5.1-1.4,10-4.1,13.3-8.4c2.7-3.7,4.3-8.1,4.7-12.6c0.5-2.5,0.3-5-0.6-7.4c-0.7-1.5-1.7-2.8-2.8-3.9&#10;&#9;&#9;c-5.7-5.6-13.7-8.3-21.6-7.4c-0.5,0.1-1.1,0.1-1.6,0.1c-0.9-0.2-1.7-0.5-2.4-1c-13.4-7.8-30.5-5.1-40.8,6.5c-0.8,1-1.8,2-2.8,2.9&#10;&#9;&#9;c-2.2,1.6-5.1,2-7.6,3.1c-3.6,1.8-6.4,4.7-8,8.4c-1.6,3.6-2.6,7.5-3,11.4c-1,6.3-1,12.7-0.1,19c0.5,2.8,1.2,5.5,1.9,8.3l2.9,10.8&#10;&#9;&#9;c0.9,3.3,1.9,6.8,4.1,9.5c1.2,1.4,2.6,2.5,4.1,3.5c3.8,2.7,8,4.9,12.3,6.7c4.2,1.7,6.4,0.4,8.8-3.4l3.5-5.4&#10;&#9;&#9;c-1.9-0.2-3.7-0.9-5.2-2.2c-2.6-1.8-4.7-4.1-6.2-6.9c-1.5-2.8-1.7-6.1-0.6-9c1.2-2.8,4.7-5.5,7.7-3.9c2.2,1.2,6.5,5.4,6.8,8.1&#10;&#9;&#9;c-0.4-4.5,0-9,1-13.3c1.9-7.5,5.7-10,13.1-10.3c2.5-0.1,4.7-1,7.1-1.4C82.1,183,86.1,183.1,90.1,182z"/>
	<path class="st1_progress-38" d="M41.4,232.7c-4.4-1.8-8.7-4.1-12.6-6.8c-1.6-1.1-3.1-2.3-4.4-3.8c-2.5-3-3.5-6.7-4.4-10l-2.9-10.8&#10;&#9;&#9;c-0.7-2.7-1.5-5.5-2-8.4c-1-6.4-0.9-13,0.1-19.4c0.4-4.1,1.5-8.1,3.1-11.9c1.8-4,4.9-7.2,8.8-9.1c1-0.4,2-0.8,3-1.1&#10;&#9;&#9;c1.5-0.4,3-1,4.3-1.8c0.8-0.6,1.4-1.3,2.1-2.1l0.5-0.6c10.8-12.1,28.7-15,42.7-6.8l0.2,0.1c0.5,0.4,1.1,0.6,1.7,0.8&#10;&#9;&#9;c0.4,0,0.7,0,1.1-0.1h0.2c8.4-0.9,16.8,1.9,22.8,7.8c1.3,1.2,2.4,2.7,3.2,4.3c1,2.6,1.2,5.4,0.7,8.2c-0.5,4.8-2.2,9.4-5,13.4&#10;&#9;&#9;c-4,5.2-9.9,7.7-14.1,8.9l0,0c-2.5,0.6-5.1,1-7.7,1.2c-1.5,0.1-3,0.3-4.6,0.5c-0.9,0.1-1.7,0.4-2.6,0.6c-1.5,0.4-3.1,0.7-4.7,0.8&#10;&#9;&#9;c-7.1,0.3-10,2.6-11.7,9.2c-1,4.2-1.4,8.5-1,12.8c0.1,0.8-0.5,1.6-1.4,1.6c-0.8,0.1-1.6-0.5-1.6-1.4l0,0c-0.2-2-3.9-5.7-6-6.9&#10;&#9;&#9;c-0.7-0.4-1.4-0.4-2.1-0.1c-1.5,0.6-2.8,1.8-3.4,3.3c-1,2.5-0.8,5.4,0.5,7.7c1.4,2.5,3.4,4.7,5.8,6.3c1.2,1,2.7,1.7,4.3,1.9l0,0&#10;&#9;&#9;c0.6,0,1.1,0.3,1.3,0.8c0.3,0.5,0.2,1.1-0.1,1.5l-3.5,5.4c-1.9,2.9-3.9,4.8-6.9,4.8C43.9,233.6,42.6,233.2,41.4,232.7z M48.3,221.6&#10;&#9;&#9;c-2.8-1.9-5.1-4.4-6.7-7.4c-1.7-3.2-2-6.9-0.6-10.3c1-2.3,2.9-4.1,5.2-5c1.5-0.5,3.2-0.4,4.5,0.4c1.7,1,3.2,2.3,4.5,3.7&#10;&#9;&#9;c0.1-2.7,0.5-5.4,1.2-8c2-7.8,6.1-11.1,14.5-11.5c1.4-0.1,2.8-0.3,4.1-0.7c0.9-0.2,1.8-0.5,2.8-0.6c1.6-0.3,3.2-0.4,4.8-0.6&#10;&#9;&#9;c2.4-0.2,4.8-0.5,7.1-1.1l0,0c3.8-1,9-3.2,12.5-7.8c2.5-3.5,4-7.7,4.4-12c0.4-2.2,0.2-4.5-0.5-6.6c-0.6-1.3-1.5-2.4-2.5-3.4&#10;&#9;&#9;c-5.4-5.3-12.9-7.8-20.4-7h-0.2c-0.6,0.1-1.2,0.1-1.8,0.1c-1-0.2-2-0.6-2.8-1.1l-0.2-0.1c-12.8-7.5-29.1-4.8-39,6.2l-0.5,0.6&#10;&#9;&#9;c-0.7,0.9-1.6,1.8-2.5,2.5c-1.6,1.1-3.3,1.8-5.2,2.3c-0.9,0.3-1.8,0.6-2.7,1c-3.3,1.6-5.9,4.3-7.3,7.6c-1.5,3.5-2.5,7.2-2.9,11&#10;&#9;&#9;c-1,6.1-1,12.4-0.1,18.5c0.5,2.7,1.2,5.4,1.9,8.1l2.9,10.8c0.8,3,1.7,6.4,3.8,8.9c1.1,1.3,2.4,2.3,3.8,3.3c3.8,2.6,7.8,4.8,12,6.5&#10;&#9;&#9;c3.2,1.3,4.7,0.7,7-2.8l2.3-3.5C50.5,223.1,49.4,222.4,48.3,221.6z"/>
</g>
<g id="loading_bar_progress-38">
	<path class="st0_progress-38" d="M108.4,378.4H372c2.3,0,4.2,1.9,4.2,4.2c0,0,0,0,0,0v7.3c0,2.3-1.9,4.2-4.2,4.2c0,0,0,0,0,0H108.4&#10;&#9;&#9;c-2.3,0-4.2-1.9-4.2-4.2v-7.3C104.2,380.3,106.1,378.4,108.4,378.4z"/>
	<path class="st1_progress-38" d="M368.4,395.8H112.1c-5.3-0.2-9.4-4.6-9.2-9.8c0.2-5,4.2-9.1,9.2-9.2h256.3c5.3,0.2,9.4,4.6,9.2,9.8&#10;&#9;&#9;C377.5,391.6,373.5,395.6,368.4,395.8z M112.1,380.1c-3.4,0-6.1,2.7-6.1,6.1c0,3.4,2.7,6.1,6.1,6.1c0,0,0,0,0,0h256.3&#10;&#9;&#9;c3.4,0,6.1-2.7,6.1-6.1c0-3.4-2.7-6.1-6.1-6.1c0,0,0,0,0,0H112.1z"/>
	<path class="st2_progress-38 targetColor" d="M326.6,378.4H112.1c-4.3,0-7.9,3.5-7.9,7.9l0,0c0,4.3,3.5,7.9,7.9,7.9h214.5V378.4z" style="fill: rgb(104, 225, 253);"/>
	<path class="st1_progress-38" d="M326.6,395.8H112.1c-5.3-0.2-9.4-4.6-9.2-9.8c0.2-5,4.2-9.1,9.2-9.2h214.5c0.9,0,1.7,0.8,1.7,1.7l0,0v15.6&#10;&#9;&#9;C328.3,395,327.5,395.8,326.6,395.8L326.6,395.8z M112.1,380.1c-3.4,0-6.1,2.7-6.1,6.1c0,3.4,2.7,6.1,6.1,6.1c0,0,0,0,0,0h212.8&#10;&#9;&#9;V380L112.1,380.1L112.1,380.1z"/>
</g>
</svg>