<svg version="1.1" id="Layer_1" xmlns="http://www.w3.org/2000/svg" xmlns:xlink="http://www.w3.org/1999/xlink" x="0px" y="0px" viewBox="0 0 500 500" style="width: 144px;" xml:space="preserve" data-imageid="message-received-1-73" imageName="Message Received 1" class="illustrations_image">
<style type="text/css">
	.st0_message-received-1-73{fill:#FFFFFF;}
	.st1_message-received-1-73{fill:#231F20;}
	.st2_message-received-1-73{fill:#D1D3D4;}
	.st3_message-received-1-73{fill:none;}
	.st4_message-received-1-73{fill:#68E1FD;}
</style>
<g id="hand_with_smartphone_message-received-1-73">
	<path class="st0_message-received-1-73" d="M334.1,396.3l18.3-90.6l6-55.7c0,0-60.9-59.7-78.2-79.3s-37-47.7-46-45.6s-10.7,12.3-4.8,24.9&#10;&#9;&#9;c2.4,5.2,6.1,10.9,7.7,16.2c1.4,4.4,0.9,16.6-3.3,19.7c-5.1,3.7-9.9-14.2-16.3-11c-3.4,1.7-6.7,10.3-3.8,19.6&#10;&#9;&#9;c1.1,3.6,4.5,9.6,6.5,12.8c5.3,8.5,5.3,13.8,8.7,23.1c3.5,9.6,2.6-3.4-0.6,5.4c-3.9,10.7-9.5,23.1-9.7,34.7&#10;&#9;&#9;c-0.4,18.5,21.9,48.4,31,62.9c9.1,14.6-8.5,49.2-8.5,49.2L334.1,396.3z"/>
	<path class="st1_message-received-1-73" d="M334.1,397L334.1,397L241,383.3c-0.2,0-0.4-0.2-0.5-0.4c-0.1-0.2-0.1-0.4,0-0.6c0.2-0.4,17.4-34.4,8.5-48.5&#10;&#9;&#9;c-1.5-2.4-3.4-5.3-5.4-8.3c-10.4-15.7-26-39.4-25.7-55c0.2-9.9,4.2-20.5,7.8-29.8c0.7-1.7,1.3-3.4,1.9-5.1c0.3-1,0.8-2,1.4-2.9&#10;&#9;&#9;c-0.2-0.5-0.5-1.2-0.8-2c-1.1-3.2-1.9-5.8-2.6-8.4c-1.4-4.9-2.6-9.1-6-14.6c-2.4-3.8-5.5-9.5-6.6-12.9c-3-9.7,0.5-18.6,4.2-20.4&#10;&#9;&#9;s7,2.4,9.8,6.2c1.1,1.6,2.3,3,3.6,4.4c1.4,1.2,2.2,0.9,2.8,0.5c3.8-2.8,4.4-14.6,3-18.9c-1.3-3.7-2.9-7.2-4.9-10.6&#10;&#9;&#9;c-1-1.9-2-3.8-2.8-5.6c-3.8-8.1-4.5-15.2-2.1-20.1c1.5-3,4.2-5.1,7.4-5.7c7.1-1.7,19.3,13,33.3,30.1c4.4,5.3,8.9,10.8,13.3,15.7&#10;&#9;&#9;c17.2,19.3,77.6,78.7,78.2,79.3c0.2,0.1,0.2,0.4,0.2,0.6l-6,55.7l-18.3,90.7C334.7,396.8,334.4,397,334.1,397z M242.2,382&#10;&#9;&#9;l91.4,13.5l18.2-90l6-55.3c-4.2-4.1-61.4-60.4-78-79.1c-4.4-4.9-8.9-10.4-13.3-15.8c-12.6-15.3-25.6-31.1-31.9-29.6&#10;&#9;&#9;c-2.8,0.6-5.2,2.4-6.5,5c-2.2,4.4-1.4,11.4,2.1,18.9c0.8,1.8,1.8,3.6,2.8,5.5c2,3.5,3.7,7.1,5,10.9c1.4,4.3,1.1,17.1-3.5,20.5&#10;&#9;&#9;c-1.4,1-2.9,0.8-4.5-0.5c-1.4-1.4-2.7-2.9-3.9-4.6c-2.6-3.5-5.2-7.2-8-5.8s-6.3,9.6-3.5,18.8c1.1,3.6,4.6,9.6,6.4,12.6&#10;&#9;&#9;c3.6,5.7,4.8,10,6.2,15c0.7,2.5,1.5,5.2,2.6,8.3c0.3,0.7,0.5,1.3,0.7,1.7c0.1,0,0.2,0,0.4,0c0.8,0.2,1.3,1,1.2,1.8&#10;&#9;&#9;c0.1,0.5-0.3,1-0.8,1.1c-0.4,0.1-0.8-0.1-1.3-0.8c-0.3,0.6-0.6,1.3-0.9,2c-0.6,1.7-1.3,3.4-1.9,5.1c-3.5,9.2-7.5,19.7-7.7,29.3&#10;&#9;&#9;c-0.3,15.2,15.2,38.7,25.5,54.2c2,3,3.9,5.9,5.4,8.3C258.8,346.6,244.9,376.4,242.2,382z"/>
	<path class="st0_message-received-1-73" d="M287.4,338l-93.6-29.1c-3.8-1.2-5.9-5.2-4.7-9l62.3-200.1c1.2-3.8,5.2-5.9,9-4.7l93.6,29.1&#10;&#9;&#9;c3.8,1.2,5.9,5.2,4.7,9l-62.3,200.1C295.2,337.1,291.1,339.2,287.4,338z"/>
	<path class="st1_message-received-1-73" d="M289.5,339c-0.8,0-1.6-0.1-2.3-0.4l-93.6-29.1l0,0c-4.1-1.3-6.5-5.7-5.2-9.8l62.3-200.1&#10;&#9;&#9;c1.3-4.1,5.7-6.5,9.8-5.2l93.6,29.1c4.1,1.3,6.5,5.7,5.2,9.8L297,333.5C296,336.8,292.9,339,289.5,339z M194,308.2l93.6,29.1&#10;&#9;&#9;c3.4,1.1,7-0.8,8.1-4.2L357.9,133c0.5-1.6,0.4-3.4-0.5-4.9c-0.8-1.5-2.2-2.7-3.8-3.2l-93.6-29.1c-3.4-1.1-7,0.8-8.1,4.2&#10;&#9;&#9;l-62.2,200.2C188.7,303.6,190.6,307.2,194,308.2C194,308.2,194,308.2,194,308.2z"/>
	
		<rect x="189.1" y="161" transform="matrix(0.297 -0.9549 0.9549 0.297 -8.2201 411.3205)" class="st2_message-received-1-73" width="172.3" height="100.5"/>
	<path class="st2_message-received-1-73" d="M252,320.3c-0.5,0-1-0.1-1.5-0.2l-18.2-5.7c-2.7-0.8-4.2-3.7-3.4-6.4l2.2-7c0.8-2.7,3.7-4.2,6.4-3.4l18.3,5.7&#10;&#9;&#9;c2.7,0.8,4.2,3.7,3.4,6.4l-2.2,7C256.2,318.9,254.2,320.3,252,320.3L252,320.3z M235.9,298.9c-0.6,0-1.2,0.1-1.7,0.4&#10;&#9;&#9;c-0.9,0.5-1.5,1.2-1.8,2.2l-2.2,7c-0.3,0.9-0.2,2,0.3,2.8c0.5,0.9,1.2,1.5,2.2,1.8l0,0l18.3,5.7c0.9,0.3,2,0.2,2.8-0.3&#10;&#9;&#9;c0.9-0.5,1.5-1.2,1.8-2.2l2.2-7c0.6-2-0.5-4-2.4-4.6L237,299C236.6,298.9,236.2,298.9,235.9,298.9L235.9,298.9z"/>
	<path class="st2_message-received-1-73" d="M323.5,126c-0.1,0-0.1,0-0.2,0l-27.3-8.5c-0.4-0.1-0.6-0.5-0.5-0.9c0.1-0.4,0.5-0.6,0.9-0.5c0,0,0,0,0,0&#10;&#9;&#9;l27.3,8.5c0.4,0.1,0.6,0.5,0.5,0.9C324,125.8,323.7,126,323.5,126z"/>
	<path class="st2_message-received-1-73" d="M292.4,116c-0.1,0-0.1,0-0.2,0l-3.7-1.1c-0.4-0.1-0.6-0.5-0.5-0.9c0,0,0,0,0,0c0.1-0.4,0.5-0.6,0.9-0.5&#10;&#9;&#9;c0,0,0,0,0,0l3.7,1.1c0.4,0.1,0.6,0.5,0.5,0.9C293,115.8,292.7,116,292.4,116L292.4,116z"/>
	<path class="st0_message-received-1-73" d="M243.7,193.4c-0.8,3.7-4.1,6.5-8.4,7.2c-4.9,0.6-9.8-0.7-13.8-3.5c-2.3-1.6-4.3-3.6-5.8-6&#10;&#9;&#9;c-2.6-4.1-3.4-8.7-1.8-12.3c2.6-5.8,11.7-7.1,19.5-3.7C240.7,178.3,244.9,188,243.7,193.4z"/>
	<path class="st1_message-received-1-73" d="M232.9,201.5c-4.2-0.1-8.3-1.4-11.8-3.9c-2.4-1.7-4.4-3.8-6-6.2c-2.8-4.4-3.5-9.3-1.9-12.9&#10;&#9;&#9;c2.7-6,11.9-7.8,20.4-4.1c7.5,3.3,12,13.2,10.7,19.1l0,0c-0.9,4-4.3,7-9,7.7C234.5,201.4,233.7,201.5,232.9,201.5z M224.8,173.9&#10;&#9;&#9;c-4.7,0-8.8,1.8-10.3,5.2s-0.8,7.6,1.8,11.6c1.5,2.3,3.4,4.3,5.6,5.8c3.8,2.8,8.6,4,13.3,3.4c4.1-0.7,7.1-3.2,7.8-6.7&#10;&#9;&#9;c1.1-4.9-2.6-14.4-9.9-17.5C230.5,174.6,227.7,173.9,224.8,173.9z M243.7,193.4L243.7,193.4z"/>
	<path class="st0_message-received-1-73" d="M233.9,220c0.9,2.7,0.5,5.6-1.1,8c-1.1,1.3-2.5,2.3-4,3c-4.1,2-9.2,2.8-13.4,0.8c-2.5-1.4-4.7-3.3-6.3-5.7&#10;&#9;&#9;c-3-3.9-5.7-8.4-5.6-13.3c0.2-7.1,7.9-15.2,15.2-11.9C224.8,203.7,232.2,213.8,233.9,220z"/>
	<path class="st1_message-received-1-73" d="M220.8,233.7c-2,0-3.9-0.4-5.7-1.2c-2.6-1.4-4.8-3.4-6.6-5.9c-4-5.1-5.8-9.5-5.7-13.8c0.3-4.7,2.9-9,6.9-11.6&#10;&#9;&#9;c2.8-1.9,6.3-2.2,9.4-0.9c6.3,2.8,13.8,13.1,15.6,19.5l0,0c0.9,2.9,0.5,6.1-1.2,8.6c-1.1,1.4-2.6,2.5-4.3,3.2&#10;&#9;&#9;C226.5,232.9,223.7,233.6,220.8,233.7z M215.2,200.9c-1.7,0-3.4,0.5-4.8,1.5c-3.6,2.3-5.9,6.2-6.2,10.4c-0.1,3.9,1.6,8,5.4,12.9&#10;&#9;&#9;c1.6,2.2,3.7,4.1,6.1,5.5c3.6,1.7,8.2,1.4,12.8-0.8c1.5-0.6,2.7-1.6,3.8-2.8c1.4-2.2,1.8-4.9,1-7.4l0,0c-1.7-6-9-15.9-14.8-18.6&#10;&#9;&#9;C217.4,201.1,216.3,200.9,215.2,200.9L215.2,200.9z"/>
	<path class="st0_message-received-1-73" d="M223.6,239.8c1.2,1.5,2,3.2,2.4,5.1c0.8,4.1-1.3,8.6-4.7,11c-3.6,2.3-8,3.2-12.1,2.2c-5-0.9-9.4-3.9-12-8.2&#10;&#9;&#9;c-2.6-4.4-2.6-9.8-0.2-14.3C203.8,224.2,217.7,231.9,223.6,239.8z"/>
	<path class="st1_message-received-1-73" d="M212.7,259.1c-1.2,0-2.4-0.1-3.6-0.4c-5.2-1-9.7-4.1-12.4-8.6c-2.7-4.6-2.8-10.3-0.2-15&#10;&#9;&#9;c2.2-3.8,5.5-5.9,9.4-6.1c6.7-0.4,14.3,4.9,18.3,10.2l0,0c1.2,1.6,2.1,3.4,2.6,5.3c0.7,4.5-1.2,9.1-5,11.7&#10;&#9;&#9;C219,258.2,215.9,259.2,212.7,259.1z M206.5,230.5h-0.6c-3.5,0.2-6.3,2-8.3,5.4c-2.4,4.2-2.3,9.4,0.2,13.6c2.5,4.1,6.7,7,11.5,7.9&#10;&#9;&#9;c4,0.9,8.2,0.1,11.6-2.1c3.3-2.3,5.1-6.3,4.4-10.3c-0.4-1.7-1.2-3.4-2.3-4.8C219.4,235.3,212.6,230.5,206.5,230.5L206.5,230.5z"/>
	<polygon class="st1_message-received-1-73" points="345.8,405.2 348.8,348.2 240,349.5 218.4,405.2 &#9;"/>
	<path class="st1_message-received-1-73" d="M345.8,405.9H218.4c-0.4,0-0.7-0.3-0.7-0.7c0-0.1,0-0.2,0-0.2l21.6-55.7c0.1-0.3,0.4-0.4,0.6-0.5l108.8-1.4&#10;&#9;&#9;c0.2,0,0.4,0.1,0.5,0.2c0.1,0.1,0.2,0.3,0.2,0.5l-3,57C346.5,405.6,346.2,405.9,345.8,405.9C345.8,405.9,345.8,405.9,345.8,405.9z&#10;&#9;&#9; M219.4,404.5h125.7l2.9-55.6l-107.6,1.3L219.4,404.5z"/>
	<path class="st0_message-received-1-73" d="M351.4,308.8c0,0,17.2-57.5,14-71s-9.4-67.8-15-69.9s-16.7,13.4-16.5,30.3c0.1,10,1.7,19.9,4.8,29.4&#10;&#9;&#9;c0,0-18.6,8.2-20.7,53.8"/>
	<path class="st1_message-received-1-73" d="M351.4,309.5h-0.2c-0.4-0.1-0.6-0.5-0.5-0.9c0.2-0.6,17.1-57.5,14-70.6c-1-4.2-2.2-12.1-3.7-21.3&#10;&#9;&#9;c-2.8-17.5-7.4-46.8-10.8-48.1c-1.3-0.5-2.8,0.3-3.9,1c-5.8,4-11.9,16.1-11.7,28.6c0.1,9.9,1.7,19.7,4.8,29.1&#10;&#9;&#9;c0.1,0.3,0,0.7-0.4,0.9c0,0-4.6,2.1-9.3,9.6c-4.4,7-9.9,20.2-10.9,43.5c0,0.4-0.3,0.7-0.7,0.7c0,0,0,0,0,0c-0.4,0-0.7-0.3-0.7-0.7&#10;&#9;&#9;c0,0,0,0,0,0c1.9-41.5,17.2-52.2,20.5-54.1c-3-9.4-4.5-19.2-4.6-29c-0.2-12.9,6.3-25.5,12.3-29.8c1.9-1.3,3.7-1.8,5.1-1.2&#10;&#9;&#9;c3.9,1.5,7.4,21.3,11.7,49.2c1.5,9.2,2.7,17.1,3.7,21.2c3.2,13.5-13.3,69-14,71.3C352,309.3,351.7,309.5,351.4,309.5z"/>
</g>
<g id="notification_message-received-1-73">
	<path class="st0_message-received-1-73" d="M278.7,122.1h-132c-6.9,0-12.5,5.6-12.5,12.5c0,0,0,0,0,0v87.1c0,6.9,5.6,12.5,12.5,12.5c0,0,0,0,0,0h111.9&#10;&#9;&#9;l18.4,23.4v-23.4h1.6c6.9,0,12.5-5.6,12.5-12.5c0,0,0,0,0,0v-87.1C291.1,127.7,285.6,122.1,278.7,122.1z"/>
	<path class="st1_message-received-1-73" d="M277,258.4c-0.2,0-0.4-0.1-0.5-0.3L258.3,235H146.7c-7.3,0-13.2-5.9-13.2-13.2v-87.2c0-7.3,5.9-13.2,13.2-13.2&#10;&#9;&#9;h132c7.3,0,13.2,5.9,13.2,13.2v87.1c0,7.3-5.9,13.2-13.2,13.2c0,0,0,0,0,0h-1v22.7c0,0.3-0.2,0.6-0.5,0.7L277,258.4z M146.7,122.8&#10;&#9;&#9;c-6.5,0-11.8,5.3-11.8,11.8v87.1c0,6.5,5.3,11.8,11.8,11.8h111.9c0.2,0,0.4,0.1,0.5,0.3l17.2,21.8v-21.4c0-0.4,0.3-0.7,0.7-0.7l0,0&#10;&#9;&#9;h1.6c6.5,0,11.8-5.3,11.8-11.8v-87.1c0-6.5-5.3-11.8-11.8-11.8H146.7z"/>
	<path class="st1_message-received-1-73" d="M255.7,166.1l-40.5-30.4c-1.5-1.1-3.5-1.1-5,0l-40.5,30.4v51.3h86L255.7,166.1L255.7,166.1z"/>
	<path class="st1_message-received-1-73" d="M255.7,218.1h-86c-0.4,0-0.7-0.3-0.7-0.7c0,0,0,0,0,0v-51.3c0-0.2,0.1-0.4,0.3-0.6l40.5-30.5&#10;&#9;&#9;c1.7-1.3,4.1-1.3,5.9,0l40.5,30.5c0.2,0.1,0.3,0.3,0.3,0.6v51.3C256.4,217.8,256.1,218.1,255.7,218.1&#10;&#9;&#9;C255.7,218.1,255.7,218.1,255.7,218.1L255.7,218.1z M170.4,216.7H255v-50.2l-40.2-30.2c-1.2-0.9-2.9-0.9-4.2,0l-40.2,30.2&#10;&#9;&#9;L170.4,216.7z"/>
	<rect x="177.7" y="149.4" class="st0_message-received-1-73" width="67.8" height="64.2"/>
	<path class="st1_message-received-1-73" d="M245.5,214.2h-67.8c-0.4,0-0.6-0.3-0.6-0.6v-64.2c0-0.4,0.3-0.6,0.6-0.6h67.8c0.4,0,0.6,0.3,0.6,0.6v64.2&#10;&#9;&#9;C246.1,213.9,245.9,214.2,245.5,214.2z M178.3,212.9h66.5V150h-66.5V212.9z"/>
	<path class="st2_message-received-1-73" d="M235.6,183.6h-47.9c-0.4,0-0.7-0.3-0.7-0.7c0-0.4,0.3-0.7,0.7-0.7h47.9c0.4,0,0.7,0.3,0.7,0.7&#10;&#9;&#9;C236.3,183.3,235.9,183.6,235.6,183.6C235.6,183.6,235.6,183.6,235.6,183.6z"/>
	<path class="st2_message-received-1-73" d="M213.8,190.4h-26.1c-0.4,0-0.7-0.3-0.7-0.7c0-0.4,0.3-0.7,0.7-0.7h26.1c0.4,0,0.7,0.3,0.7,0.7&#10;&#9;&#9;C214.5,190.1,214.2,190.4,213.8,190.4L213.8,190.4z"/>
	<path class="st2_message-received-1-73" d="M235.6,163h-47.9c-0.4,0-0.7-0.3-0.7-0.7c0-0.4,0.3-0.7,0.7-0.7c0,0,0,0,0,0h47.9c0.4,0,0.7,0.3,0.7,0.7&#10;&#9;&#9;C236.3,162.7,235.9,163,235.6,163C235.6,163,235.6,163,235.6,163z"/>
	<path class="st2_message-received-1-73" d="M235.6,169.9h-47.9c-0.4,0-0.7-0.3-0.7-0.7c0-0.4,0.3-0.7,0.7-0.7c0,0,0,0,0,0h47.9c0.4,0,0.7,0.3,0.7,0.7&#10;&#9;&#9;C236.3,169.6,235.9,169.9,235.6,169.9C235.6,169.9,235.6,169.9,235.6,169.9z"/>
	<path class="st2_message-received-1-73" d="M235.6,176.7h-47.9c-0.4,0-0.7-0.3-0.7-0.7c0-0.4,0.3-0.7,0.7-0.7h47.9c0.4,0,0.7,0.3,0.7,0.7&#10;&#9;&#9;C236.2,176.4,235.9,176.7,235.6,176.7z"/>
	<polygon class="st0_message-received-1-73" points="255.7,166.1 255.7,221.2 169.7,221.2 169.7,166.1 212.7,198.5 &#9;"/>
	<path class="st1_message-received-1-73" d="M255.7,221.9h-86c-0.3,0-0.6-0.3-0.6-0.6c0,0,0,0,0,0v-55.1c0-0.2,0.1-0.5,0.4-0.6c0.2-0.1,0.5-0.1,0.7,0.1&#10;&#9;&#9;l42.6,32l42.6-32c0.2-0.1,0.5-0.2,0.7-0.1c0.2,0.1,0.4,0.3,0.3,0.6v55.1C256.3,221.6,256,221.9,255.7,221.9&#10;&#9;&#9;C255.7,221.9,255.7,221.9,255.7,221.9z M170.3,220.6H255v-53.2L213,199c-0.2,0.2-0.5,0.2-0.8,0l-42-31.6L170.3,220.6z"/>
	<line class="st3_message-received-1-73" x1="169.7" y1="221.2" x2="205.6" y2="193.1"/>
	<path class="st1_message-received-1-73" d="M169.7,221.9c-0.2,0-0.4-0.1-0.5-0.2c-0.2-0.3-0.2-0.7,0.1-0.9c0,0,0,0,0,0l35.9-28.1c0.3-0.2,0.7-0.2,0.9,0.1&#10;&#9;&#9;c0.2,0.3,0.2,0.7-0.1,0.9c0,0,0,0,0,0l-35.9,28.1C170,221.8,169.8,221.9,169.7,221.9z"/>
	<line class="st3_message-received-1-73" x1="219" y1="193.7" x2="255.7" y2="221.2"/>
	<path class="st1_message-received-1-73" d="M255.7,221.9c-0.1,0-0.3,0-0.4-0.1l-36.6-27.5c-0.2-0.3-0.2-0.7,0-0.9c0.2-0.2,0.5-0.2,0.7-0.1l36.6,27.6&#10;&#9;&#9;c0.3,0.2,0.3,0.6,0.1,0.9c0,0,0,0,0,0C256.1,221.8,255.9,221.9,255.7,221.9z"/>
	<circle class="st4_message-received-1-73 targetColor" cx="255.7" cy="193.7" r="18" style="fill: rgb(104, 225, 253);"/>
	<path class="st0_message-received-1-73" d="M255.7,187.6l-5.5,2.8v-4.4l5.9-3h4v17h-4.4L255.7,187.6z"/>
</g>
<g id="Lines_message-received-1-73">
	<path class="st2_message-received-1-73" d="M159.9,161.9c-0.1,0-0.1,0-0.2,0l-16.1-3.8c-0.4-0.1-0.6-0.4-0.6-0.8c0.1-0.4,0.4-0.6,0.8-0.6c0,0,0.1,0,0.1,0&#10;&#9;&#9;l16.1,3.8c0.4,0.1,0.6,0.5,0.5,0.8C160.5,161.7,160.3,162,159.9,161.9L159.9,161.9z"/>
	<path class="st2_message-received-1-73" d="M164.3,152.7c-0.2,0-0.3,0-0.4-0.1l-15.7-12.1c-0.3-0.2-0.4-0.7-0.2-1c0,0,0,0,0,0c0.2-0.3,0.7-0.4,1-0.1&#10;&#9;&#9;c0,0,0,0,0,0l15.7,12.1c0.3,0.2,0.4,0.7,0.2,1c0,0,0,0,0,0C164.7,152.6,164.5,152.7,164.3,152.7z"/>
	<path class="st2_message-received-1-73" d="M173.8,142.8c-0.3,0-0.6-0.2-0.7-0.5l-4.1-11.2c-0.1-0.4,0.1-0.8,0.4-0.9c0,0,0,0,0,0c0.4-0.1,0.8,0.1,0.9,0.4&#10;&#9;&#9;c0,0,0,0,0,0l4.1,11.2c0.1,0.4-0.1,0.8-0.4,0.9c0,0,0,0,0,0C173.9,142.8,173.9,142.8,173.8,142.8z"/>
</g>
</svg>